<?xml version="1.0" encoding="UTF-8" standalone="no"?>
<svg
   height="48"
   width="48"
   version="1.1"
   id="svg1083"
   sodipodi:docname="repeat.svg"
   inkscape:version="1.1.2 (0a00cf5339, 2022-02-04)"
   xmlns:inkscape="http://www.inkscape.org/namespaces/inkscape"
   xmlns:sodipodi="http://sodipodi.sourceforge.net/DTD/sodipodi-0.dtd"
   xmlns="http://www.w3.org/2000/svg"
   xmlns:svg="http://www.w3.org/2000/svg">
  <defs
     id="defs1087" />
  <sodipodi:namedview
     id="namedview1085"
     pagecolor="#505050"
     bordercolor="#eeeeee"
     borderopacity="1"
     inkscape:pageshadow="0"
     inkscape:pageopacity="0"
     inkscape:pagecheckerboard="0"
     showgrid="false"
     inkscape:snap-grids="true"
     inkscape:zoom="9"
     inkscape:cx="26.222222"
     inkscape:cy="21"
     inkscape:window-width="2534"
     inkscape:window-height="1384"
     inkscape:window-x="10"
     inkscape:window-y="40"
     inkscape:window-maximized="0"
     inkscape:current-layer="svg1083" />
  <path
     d="m 32.647129,30.536584 v -4.696457 q 0,-0.469642 0.308979,-0.776721 0.308982,-0.307079 0.78154,-0.307079 0.472549,0 0.78154,0.307079 0.308979,0.307079 0.308979,0.740596 v 5.816382 q 0,0.469641 -0.308979,0.77672 -0.308991,0.307069 -0.78154,0.307069 h -17.95718 l 2.326434,2.312106 q 0.363503,0.361264 0.363503,0.812848 0,0.451584 -0.327149,0.776722 -0.327174,0.325138 -0.763371,0.343205 -0.436206,0.01802 -0.763365,-0.307079 L 12.327149,32.379038 Q 12,32.053899 12,31.620384 q 0,-0.433526 0.327149,-0.758665 l 4.253016,-4.22681 q 0.327173,-0.325139 0.781553,-0.325139 0.454364,0 0.781538,0.325139 0.327149,0.325146 0.327149,0.77672 0,0.451585 -0.327149,0.776721 l -2.362788,2.348234 z M 16.652883,15.363417 v 4.696454 q 0,0.469643 -0.30898,0.776722 -0.308993,0.307079 -0.781552,0.307079 -0.472546,0 -0.781538,-0.307079 -0.308979,-0.307079 -0.308979,-0.740594 v -5.816382 q 0,-0.469642 0.308979,-0.776722 0.308992,-0.307068 0.781538,-0.307068 h 17.957181 l -2.326425,-2.312106 q -0.327159,-0.325137 -0.345329,-0.794779 -0.01813,-0.469652 0.308966,-0.7947902 0.327174,-0.325138 0.763381,-0.343201 0.436205,-0.018064 0.763357,0.307076 L 36.97285,13.520964 Q 37.3,13.846102 37.3,14.279617 q 0,0.433527 -0.32715,0.758663 l -4.253016,4.226813 q -0.327163,0.325136 -0.781552,0.325136 -0.454364,0 -0.781538,-0.325136 -0.327149,-0.325146 -0.327149,-0.776722 0,-0.451584 0.327149,-0.77672 l 2.362788,-2.348234 z"
     id="path1081"
     style="stroke-width:0.724767" />
</svg>
