<?xml version="1.0" encoding="UTF-8" standalone="no"?>
<svg
   height="48"
   width="48"
   version="1.1"
   id="svg839"
   sodipodi:docname="shuffle.svg"
   inkscape:version="1.1.2 (0a00cf5339, 2022-02-04)"
   xmlns:inkscape="http://www.inkscape.org/namespaces/inkscape"
   xmlns:sodipodi="http://sodipodi.sourceforge.net/DTD/sodipodi-0.dtd"
   xmlns="http://www.w3.org/2000/svg"
   xmlns:svg="http://www.w3.org/2000/svg">
  <defs
     id="defs843" />
  <sodipodi:namedview
     id="namedview841"
     pagecolor="#505050"
     bordercolor="#eeeeee"
     borderopacity="1"
     inkscape:pageshadow="0"
     inkscape:pageopacity="0"
     inkscape:pagecheckerboard="0"
     showgrid="false"
     inkscape:zoom="9.09375"
     inkscape:cx="21.553265"
     inkscape:cy="18.364261"
     inkscape:window-width="2534"
     inkscape:window-height="1384"
     inkscape:window-x="10"
     inkscape:window-y="40"
     inkscape:window-maximized="0"
     inkscape:current-layer="svg839" />
  <path
     d="m 21.112405,22.004765 -8.43419,-8.43419 q -0.340394,-0.340394 -0.340394,-0.813162 0,-0.472768 0.340394,-0.813162 0.302572,-0.302572 0.794251,-0.302572 0.49168,0 0.794251,0.302572 l 8.472012,8.434191 z M 29.281846,36.15 q -0.49168,0 -0.813162,-0.321483 -0.321483,-0.321482 -0.321483,-0.813162 0,-0.491679 0.321483,-0.813161 0.321482,-0.321483 0.813162,-0.321483 h 3.593041 l -6.959153,-6.921332 1.588502,-1.626323 7.034796,6.959153 v -3.668684 q 0,-0.491679 0.321482,-0.813162 0.321483,-0.321483 0.813162,-0.321483 0.491679,0 0.813162,0.321483 0.321483,0.321483 0.321483,0.813162 v 6.39183 q 0,0.49168 -0.321483,0.813162 Q 36.165355,36.15 35.673676,36.15 Z M 12.640393,35.317928 Q 12.3,35.015355 12.3,34.542587 q 0,-0.472768 0.340394,-0.813162 L 32.950529,13.419289 h -3.668683 q -0.49168,0 -0.813162,-0.321483 -0.321483,-0.321482 -0.321483,-0.813161 0,-0.49168 0.321483,-0.813162 Q 28.790166,11.15 29.281846,11.15 h 6.39183 q 0.491679,0 0.813162,0.321483 0.321483,0.321482 0.321483,0.813162 v 6.39183 q 0,0.491679 -0.321483,0.813162 -0.321483,0.321483 -0.813162,0.321483 -0.491679,0 -0.813162,-0.321483 -0.321482,-0.321483 -0.321482,-0.813162 V 15.045613 L 14.228896,35.355749 q -0.302572,0.302572 -0.775341,0.302572 -0.472768,0 -0.813162,-0.340393 z"
     id="path837"
     style="stroke-width:0.756429" />
</svg>
